<svg width="150" height="150" viewBox="0 0 150 150" fill="none" xmlns="http://www.w3.org/2000/svg">
  <circle cx="75" cy="75" r="50" fill="#00264D" opacity="0.2"/>
  <circle cx="45" cy="55" r="15" fill="white"/>
  <circle cx="105" cy="55" r="15" fill="white"/>
  <circle cx="45" cy="55" r="9" fill="#00264D"/>
  <circle cx="105" cy="55" r="9" fill="#00264D"/>
  <circle cx="75" cy="85" r="15" fill="white"/>
  <ellipse cx="75" cy="115" rx="30" ry="20" fill="#00264D" opacity="0.3"/>
  <path d="M55 35C60 25 70 20 75 20C80 20 90 25 95 35" stroke="white" stroke-width="5" stroke-linecap="round"/>
  <path d="M50 45C45 40 35 38 30 40C25 42 20 50 20 55" stroke="white" stroke-width="5" stroke-linecap="round"/>
  <path d="M100 45C105 40 115 38 120 40C125 42 130 50 130 55" stroke="white" stroke-width="5" stroke-linecap="round"/>
</svg> 