<svg width="200" height="70" viewBox="0 0 200 70" fill="none" xmlns="http://www.w3.org/2000/svg">
  <path d="M180 50H20C15 50 10 45 10 40V20C10 15 15 10 20 10H180C185 10 190 15 190 40V40C190 45 185 50 180 50Z" fill="#D3D3D3"/>
  <path d="M190 40V30H10V40C10 45 15 50 20 50H180C185 50 190 45 190 40Z" fill="#0066B3"/>
  <path d="M20 50V60H10V50" stroke="black" stroke-width="2"/>
  <path d="M50 50V60H40V50" stroke="black" stroke-width="2"/>
  <path d="M150 50V60H140V50" stroke="black" stroke-width="2"/>
  <path d="M180 50V60H170V50" stroke="black" stroke-width="2"/>
  <rect x="20" y="20" width="15" height="15" rx="2" fill="black"/>
  <rect x="40" y="20" width="15" height="15" rx="2" fill="black"/>
  <rect x="60" y="20" width="15" height="15" rx="2" fill="black"/>
  <rect x="80" y="20" width="15" height="15" rx="2" fill="black"/>
  <rect x="100" y="20" width="15" height="15" rx="2" fill="black"/>
  <rect x="120" y="20" width="15" height="15" rx="2" fill="black"/>
  <rect x="140" y="20" width="15" height="15" rx="2" fill="black"/>
  <rect x="160" y="20" width="15" height="15" rx="2" fill="black"/>
  <path d="M95 50L105 50" stroke="black" stroke-width="3"/>
  <rect x="90" y="45" width="20" height="10" rx="5" stroke="#FFD700" stroke-width="2"/>
  <circle cx="20" cy="55" r="5" fill="black"/>
  <circle cx="45" cy="55" r="5" fill="black"/>
  <circle cx="145" cy="55" r="5" fill="black"/>
  <circle cx="175" cy="55" r="5" fill="black"/>
</svg> 