<svg width="150" height="80" viewBox="0 0 150 80" fill="none" xmlns="http://www.w3.org/2000/svg">
  <path d="M130 60H20C15 60 10 55 10 50V20C10 15 15 10 20 10H130C135 10 140 15 140 50V50C140 55 135 60 130 60Z" fill="#D3D3D3"/>
  <path d="M140 50V30H10V50C10 55 15 60 20 60H130C135 60 140 55 140 50Z" fill="#0066B3"/>
  <path d="M30 60V70H20V60" stroke="black" stroke-width="3"/>
  <path d="M130 60V70H120V60" stroke="black" stroke-width="3"/>
  <rect x="20" y="20" width="15" height="20" rx="2" fill="black"/>
  <rect x="40" y="20" width="15" height="20" rx="2" fill="black"/>
  <rect x="60" y="20" width="15" height="20" rx="2" fill="black"/>
  <rect x="80" y="20" width="15" height="20" rx="2" fill="black"/>
  <rect x="100" y="20" width="15" height="20" rx="2" fill="black"/>
  <rect x="120" y="20" width="10" height="20" rx="2" fill="black"/>
  <path d="M10 30C10 30 30 40 50 30" stroke="white" stroke-width="2"/>
  <circle cx="30" cy="65" r="5" fill="black"/>
  <circle cx="120" cy="65" r="5" fill="black"/>
</svg> 