<svg width="120" height="140" viewBox="0 0 120 140" fill="none" xmlns="http://www.w3.org/2000/svg">
  <!-- Main body -->
  <rect x="30" y="20" width="60" height="90" rx="5" fill="#333333"/>
  
  <!-- Screen area -->
  <rect x="35" y="25" width="50" height="35" rx="3" fill="#222222"/>
  <rect x="38" y="28" width="44" height="29" rx="2" fill="#0066B3"/>
  
  <!-- Card touch area -->
  <rect x="35" y="65" width="50" height="30" rx="3" fill="#222222"/>
  <rect x="38" y="68" width="44" height="24" rx="2" fill="#EEEEEE"/>
  
  <!-- TransLink logo on touch area -->
  <path d="M50 80H70M60 70V90" stroke="#0066B3" stroke-width="2"/>
  <circle cx="60" cy="80" r="10" stroke="#0066B3" stroke-width="1" fill="none"/>
  
  <!-- Button pad -->
  <rect x="40" y="100" width="40" height="5" rx="2" fill="#444444"/>
  
  <!-- Stand -->
  <path d="M30 110L20 120H100L90 110H30Z" fill="#555555"/>
  <rect x="40" y="120" width="40" height="10" fill="#555555"/>
  <rect x="35" y="130" width="50" height="5" rx="2" fill="#333333"/>
  
  <!-- Blue LED -->
  <circle cx="60" cy="60" r="2" fill="#00CCFF"/>
  
  <!-- Compass logo hint on screen -->
  <path d="M54 40L66 40M60 34V46" stroke="#FFFFFF" stroke-width="1.5" opacity="0.7"/>
  <circle cx="60" cy="40" r="8" stroke="#FFFFFF" stroke-width="1" fill="none" opacity="0.7"/>
</svg> 