<svg width="150" height="50" viewBox="0 0 150 50" xmlns="http://www.w3.org/2000/svg">
  <!-- Track lines -->
  <line x1="0" y1="45" x2="150" y2="45" stroke="#555555" stroke-width="2"/>
  <line x1="0" y1="48" x2="150" y2="48" stroke="#555555" stroke-width="2"/>
  
  <!-- Train body -->
  <rect x="20" y="25" width="110" height="20" rx="5" fill="#0066B3"/>
  <rect x="20" y="22" width="110" height="3" rx="1" fill="#0066B3"/>
  
  <!-- Windows -->
  <rect x="25" y="28" width="10" height="8" rx="1" fill="#C4E7FF"/>
  <rect x="40" y="28" width="10" height="8" rx="1" fill="#C4E7FF"/>
  <rect x="55" y="28" width="10" height="8" rx="1" fill="#C4E7FF"/>
  <rect x="70" y="28" width="10" height="8" rx="1" fill="#C4E7FF"/>
  <rect x="85" y="28" width="10" height="8" rx="1" fill="#C4E7FF"/>
  <rect x="100" y="28" width="10" height="8" rx="1" fill="#C4E7FF"/>
  <rect x="115" y="28" width="10" height="8" rx="1" fill="#C4E7FF"/>
  
  <!-- Doors -->
  <line x1="35" y1="25" x2="35" y2="45" stroke="#004C8C" stroke-width="1"/>
  <line x1="65" y1="25" x2="65" y2="45" stroke="#004C8C" stroke-width="1"/>
  <line x1="95" y1="25" x2="95" y2="45" stroke="#004C8C" stroke-width="1"/>
  
  <!-- Wheels -->
  <circle cx="35" cy="45" r="4" fill="#333333"/>
  <circle cx="85" cy="45" r="4" fill="#333333"/>
  <circle cx="115" cy="45" r="4" fill="#333333"/>
  
  <!-- Pantograph -->
  <line x1="70" y1="22" x2="70" y2="10" stroke="#777777" stroke-width="1"/>
  <line x1="80" y1="22" x2="80" y2="10" stroke="#777777" stroke-width="1"/>
  <line x1="70" y1="10" x2="80" y2="10" stroke="#777777" stroke-width="2"/>
  
  <!-- Overhead wire -->
  <line x1="0" y1="8" x2="150" y2="8" stroke="#777777" stroke-width="1" stroke-dasharray="2,2"/>
</svg> 