<svg width="180" height="70" viewBox="0 0 180 70" fill="none" xmlns="http://www.w3.org/2000/svg">
  <path d="M150 50H30C25 50 20 47 20 43V25C20 21 25 18 30 18H150C155 18 160 21 160 25V43C160 47 155 50 150 50Z" fill="#D3D3D3"/>
  <path d="M160 38V25H20V38C20 42 25 45 30 45H150C155 45 160 42 160 38Z" fill="#0066B3"/>
  <path d="M160 25L170 15H10L20 25" fill="#D3D3D3" stroke="#666666"/>
  <path d="M160 40V50H150L155 45H25L30 50H20V40" stroke="#666666"/>
  <path d="M160 40H20" stroke="#666666"/>
  <path d="M170 15V30L160 40" stroke="#666666"/>
  <path d="M10 15V30L20 40" stroke="#666666"/>
  <rect x="35" y="25" width="15" height="15" rx="2" fill="black"/>
  <rect x="55" y="25" width="15" height="15" rx="2" fill="black"/>
  <rect x="75" y="25" width="15" height="15" rx="2" fill="black"/>
  <rect x="95" y="25" width="15" height="15" rx="2" fill="black"/>
  <rect x="115" y="25" width="15" height="15" rx="2" fill="black"/>
  <rect x="135" y="25" width="15" height="15" rx="2" fill="black"/>
  <path d="M30 50L30 55" stroke="black" stroke-width="2"/>
  <path d="M150 50L150 55" stroke="black" stroke-width="2"/>
  <circle cx="30" cy="58" r="3" fill="#FFD700"/>
  <circle cx="150" cy="58" r="3" fill="#FFD700"/>
  <path d="M30 58H150" stroke="#FFD700" stroke-width="2"/>
</svg> 