<svg xmlns="http://www.w3.org/2000/svg" viewBox="0 0 480 120">
  <path fill="#0066B3" d="M72.5 30h335v60h-335z"/>
  <path fill="#FFFFFF" d="M101.1 70.2V50h17.8v3.9h-13.2v4.2h12.4v3.9h-12.4v8.3h-4.6zm28.3 0L116.9 50h5.3l8.4 14.3L139 50h5.2l-12.6 20.2h-2.2zm47.6-16.3h-7.8V50h-4.6v20.2h4.6V58h7.8v12.3h4.6V50h-4.6v3.9zm23.5 16.3-10.8-13.6V70h-4.5V50h4.1l10.8 13.6V50h4.5v20.2h-4.1zm13.3 0V50h4.6v20.2h-4.6zm15.9 0V53.9h-7.9V50h20.4v3.9h-7.9v16.3h-4.6zm21.2 0V50h4.6v20.2h-4.6zm18 0V53.9h-7.9V50h20.5v3.9h-7.9v16.3h-4.7zm32.9 0-2.3-5.2h-10.2l-2.3 5.2h-4.9L291.5 50h4.5l10.3 20.2h-4.9zm-7.4-16.9-3.7 8.2h7.4l-3.7-8.2zm28.1 16.9-6.2-8.2h-1.9V70h-4.6V50h9.2c5.2 0 8.1 2.6 8.1 6.1 0 3.1-2.1 5-4.8 5.7l6.9 8.5h-5.7v-.1zm-8.1-12.1h4.2c2.4 0 3.7-1.1 3.7-2.7 0-1.5-1.3-2.5-3.7-2.5h-4.2v5.2zm26.5 12.1V50h4.6v16.3H360v3.9h-19.1zm34.7-3.9v3.9h-17.3V50h17.1v3.9h-12.5v4.2h11.2v3.7h-11.2v4.6h12.7v-.1z"/>
  <path fill="#FFFFFF" d="M395.9 50h4.6v20.2h-4.6V50zm13.5 16.3h12.7v3.9h-17.3V50h4.6v16.3zm-348.9 4V50h17.8v3.9H65.1v4.2h12.4v3.9H65.1v8.3h-4.6z"/>
</svg> 