<svg width="200" height="50" viewBox="0 0 200 50" xmlns="http://www.w3.org/2000/svg">
  <!-- TransLink Logo -->
  <path d="M15 10 H30 V15 H25 V40 H20 V15 H15 V10 Z" fill="#0066B3"/>
  <path d="M35 10 H50 V15 H40 V20 H48 V25 H40 V35 H50 V40 H35 V10 Z" fill="#0066B3"/>
  <path d="M55 10 H70 L75 25 L80 10 H95 V40 H90 V20 L83 40 H67 L60 20 V40 H55 V10 Z" fill="#0066B3"/>
  <path d="M100 10 H115 V15 H105 V20 H113 V25 H105 V40 H100 V10 Z" fill="#0066B3"/>
  <path d="M120 10 H135 V40 H120 V10 Z M125 15 V35 H130 V15 H125 Z" fill="#0066B3"/>
  <path d="M140 10 H155 V15 H145 V20 H153 V25 H145 V35 H155 V40 H140 V10 Z" fill="#0066B3"/>
  <path d="M165 10 H180 L185 40 H180 L179 35 H166 L165 40 H160 L165 10 Z M167 30 H178 L175 15 H170 L167 30 Z" fill="#0066B3"/>
  <path d="M175 25 H185 V40 H175 V25 Z M175 10 H185 V20 H175 V10 Z" fill="#FFD800"/>
</svg> 