<svg xmlns="http://www.w3.org/2000/svg" viewBox="0 0 1200 300">
  <!-- Background sky gradient -->
  <defs>
    <linearGradient id="skyGradient" x1="0%" y1="0%" x2="0%" y2="100%">
      <stop offset="0%" stop-color="#0066B3" stop-opacity="0.2" />
      <stop offset="100%" stop-color="#0066B3" stop-opacity="0" />
    </linearGradient>
  </defs>
  
  <!-- Sky background -->
  <rect x="0" y="0" width="1200" height="300" fill="url(#skyGradient)" />
  
  <!-- Canada Place -->
  <polygon points="100,200 130,200 130,120 145,80 160,120 175,80 190,120 205,80 220,120 220,200 250,200 250,300 100,300" fill="#004080" opacity="0.8" />
  
  <!-- Vancouver Lookout/Harbour Centre -->
  <rect x="300" y="150" width="50" height="150" fill="#004080" opacity="0.7" />
  <path d="M325 130 L345 90 L305 90 Z" fill="#004080" opacity="0.7" />
  <ellipse cx="325" cy="80" rx="20" ry="10" fill="#004080" opacity="0.7" />
  
  <!-- Skyscrapers -->
  <rect x="400" y="100" width="40" height="200" fill="#004080" opacity="0.6" />
  <rect x="450" y="140" width="30" height="160" fill="#004080" opacity="0.65" />
  <rect x="490" y="120" width="35" height="180" fill="#004080" opacity="0.7" />
  <rect x="535" y="80" width="45" height="220" fill="#004080" opacity="0.75" />
  <rect x="590" y="130" width="40" height="170" fill="#004080" opacity="0.6" />
  <rect x="640" y="90" width="35" height="210" fill="#004080" opacity="0.7" />
  <rect x="685" y="110" width="40" height="190" fill="#004080" opacity="0.65" />
  <rect x="735" y="70" width="50" height="230" fill="#004080" opacity="0.8" />
  <rect x="795" y="120" width="30" height="180" fill="#004080" opacity="0.7" />
  <rect x="835" y="140" width="45" height="160" fill="#004080" opacity="0.65" />
  <rect x="890" y="100" width="35" height="200" fill="#004080" opacity="0.7" />
  
  <!-- BC Place Stadium -->
  <path d="M950,180 C950,150 1050,150 1050,180 L1050,300 L950,300 Z" fill="#004080" opacity="0.75" />
  <path d="M960,190 C960,165 1040,165 1040,190" fill="none" stroke="#FFFFFF" stroke-width="1" opacity="0.5" />
  
  <!-- Science World -->
  <circle cx="1100" cy="200" r="50" fill="#004080" opacity="0.7" />
  <rect x="1080" y="200" width="40" height="100" fill="#004080" opacity="0.7" />
  
  <!-- SkyTrain Bridge -->
  <path d="M0,250 L1200,250" stroke="#004080" stroke-width="5" opacity="0.8" />
  <path d="M0,255 L1200,255" stroke="#004080" stroke-width="2" opacity="0.8" />
</svg> 